<?xml version="1.0" standalone="no"?><!DOCTYPE svg PUBLIC "-//W3C//DTD SVG 1.1//EN" "http://www.w3.org/Graphics/SVG/1.1/DTD/svg11.dtd"><svg class="icon" width="32px" height="32.00px" viewBox="0 0 1024 1024" version="1.1" xmlns="http://www.w3.org/2000/svg"><path fill="#333333" d="M705.578667 680.256c-47.786667 39.125333-114.08 61.386667-183.776 61.386667-76.768 0-149.856-27.445333-197.781334-73.845334l18.165334-140.778666 165.706666 74.389333 177.76-75.733333 19.925334 154.581333zM520.778667 281.248l306.602666 137.653333-319.050666 135.946667-306.048-137.408 318.496-136.192z m413.034666 138.677333L521.194667 234.666667 96 416.48l205.525333 92.277333-22.432 173.877334 6.901334 7.338666c56.352 59.946667 142.304 94.336 235.808 94.336 84.266667 0 164.704-28.992 220.693333-79.541333l8.288-7.477333-24.352-188.992 85.418667-36.405334V774.4h42.666666V453.717333l79.296-33.792z"  /></svg>