<?xml version="1.0" standalone="no"?><!DOCTYPE svg PUBLIC "-//W3C//DTD SVG 1.1//EN" "http://www.w3.org/Graphics/SVG/1.1/DTD/svg11.dtd"><svg class="icon" width="32px" height="32.00px" viewBox="0 0 1024 1024" version="1.1" xmlns="http://www.w3.org/2000/svg"><path fill="#333333" d="M604.938667 256l43.466666 96.629333H832V768H192V352.629333h171.968L407.434667 256h197.504z m-27.594667 42.666667H435.029333l-43.466666 96H234.666667v330.666666h554.666666V394.666667H620.810667l-43.466667-96z m-71.146667 101.482666c83.445333 0 151.328 67.893333 151.328 151.36 0 83.434667-67.882667 151.317333-151.338666 151.317334-83.456 0-151.338667-67.882667-151.338667-151.328 0-83.456 67.882667-151.349333 151.338667-151.349334z m0 39.466667c-61.696 0-111.882667 50.197333-111.882666 111.893333 0 61.674667 50.186667 111.861333 111.872 111.861334 61.685333 0 111.872-50.186667 111.872-111.872 0-61.685333-50.186667-111.893333-111.872-111.893334z"  /></svg>