<?xml version="1.0" standalone="no"?><!DOCTYPE svg PUBLIC "-//W3C//DTD SVG 1.1//EN" "http://www.w3.org/Graphics/SVG/1.1/DTD/svg11.dtd"><svg class="icon" width="32px" height="32.00px" viewBox="0 0 1024 1024" version="1.1" xmlns="http://www.w3.org/2000/svg"><path fill="#333333" d="M640.288 245.333333c4.341333 0 8.586667 0.106667 12.714667 0.330667 77.184 4.128 142.581333 58.805333 162.730666 136.064 20.8 79.722667 58.346667 224.714667 76.298667 299.978667 6.912 28.992 4.650667 52.8-6.72 70.762666-9.770667 15.402667-26.058667 25.877333-47.125333 30.293334a91.456 91.456 0 0 1-18.88 1.962666c-31.104 0-61.205333-15.754667-80.16-43.082666L624.490667 576.437333a451.946667 451.946667 0 0 1-28.448 0.949334H426.816c-9.792 0-18.805333-0.373333-27.402667-0.885334L284.8 741.642667c-22.794667 32.821333-61.674667 49.013333-99.050667 41.12-21.066667-4.416-37.354667-14.890667-47.114666-30.293334-11.381333-17.962667-13.642667-41.770667-6.72-70.762666 17.952-75.264 55.498667-220.256 76.277333-299.978667 20.16-77.258667 85.557333-131.936 162.730667-136.064 4.138667-0.224 8.373333-0.330667 12.725333-0.330667z m0 42.666667h-256.64c-3.573333 0-7.061333 0.085333-10.453333 0.266667-57.632 3.082667-108.512 45.952-123.712 104.234666-20.746667 79.562667-58.218667 224.213333-76.074667 299.104-4.085333 17.12-3.648 30.261333 1.28 38.026667 3.530667 5.6 10.026667 9.322667 19.84 11.381333 20.234667 4.277333 42.432-5.269333 55.221333-23.701333l101.941334-146.901333c-42.666667-8.853333-60.896-23.274667-63.562667-25.557334l27.349333-32.746666c0.288 0.234667 29.909333 22.613333 111.338667 22.613333H596.053333c81.429333 0 111.04-22.378667 111.328-22.613333l27.36 32.746666c-2.645333 2.272-20.661333 16.48-62.613333 25.354667l102.08 147.104c12.768 18.432 34.901333 27.978667 55.221333 23.701333 9.813333-2.058667 16.298667-5.781333 19.84-11.381333 4.917333-7.765333 5.354667-20.906667 1.28-38.026667-17.877333-74.890667-55.338667-219.541333-76.096-299.104-15.189333-58.282667-66.069333-101.152-123.701333-104.234666a196.064 196.064 0 0 0-10.453333-0.266667z m-234.986667 42.666667v53.333333h53.333334v42.666667h-53.333334v53.333333h-42.666666v-53.333333h-53.333334v-42.666667h53.333334v-53.333333h42.666666z m192 96v42.666666h-42.666666v-42.666666h42.666666z m85.333334 0v42.666666h-42.666667v-42.666666h42.666667z m-85.333334-85.333334v42.666667h-42.666666v-42.666667h42.666666z m85.333334 0v42.666667h-42.666667v-42.666667h42.666667z"  /></svg>